<svg viewBox="0 0 100 100" xmlns="http://www.w3.org/2000/svg">
  <rect width="100" height="100" rx="24" fill="#117A45"/>
  <g transform="translate(50,52) scale(0.58)">
    <path d="M-38,-6 L38,-6 L31,50 Q30,58 22,58 L-22,58 Q-30,58 -31,50 Z" fill="#FFFFFF"/>
    <rect x="-42" y="-18" width="84" height="13" rx="6" fill="#E4EDE6"/>
    <rect x="-13" y="3" width="26" height="5" rx="2.5" fill="#BCD6C2"/>
    <path d="M-13,-18 L13,-18 L16,-31 L-16,-31 Z" fill="#16271D"/>
    <path d="M-48,-43 L0,-29 L48,-43 L48,-39 L0,-25 L-48,-39 Z" fill="#0C160F"/>
    <path d="M0,-58 L48,-43 L0,-29 L-48,-43 Z" fill="#1B3326"/>
    <circle cx="0" cy="-43" r="3.6" fill="#E7B53E"/>
    <path d="M0,-43 C26,-41 44,-44 45,-40 C47,-28 47,-8 45,8" fill="none" stroke="#E7B53E" stroke-width="3" stroke-linecap="round"/>
    <path d="M45,8 c-5,2 -5,10 0,13 c5,-3 5,-11 0,-13 z" fill="#E7B53E"/>
  </g>
</svg>
